<?xml version="1.0" encoding="UTF-8" standalone="no"?>
<svg
   xmlns:dc="http://purl.org/dc/elements/1.1/"
   xmlns:cc="http://creativecommons.org/ns#"
   xmlns:rdf="http://www.w3.org/1999/02/22-rdf-syntax-ns#"
   xmlns:svg="http://www.w3.org/2000/svg"
   xmlns="http://www.w3.org/2000/svg"
   xmlns:sodipodi="http://sodipodi.sourceforge.net/DTD/sodipodi-0.dtd"
   xmlns:inkscape="http://www.inkscape.org/namespaces/inkscape"
   version="1.1"
   id="svg2"
   xml:space="preserve"
   width="341.20001"
   height="363.94666"
   viewBox="0 0 341.20001 363.94666"
   sodipodi:docname="lol_logo.eps"><metadata
     id="metadata8"><rdf:RDF><cc:Work
         rdf:about=""><dc:format>image/svg+xml</dc:format><dc:type
           rdf:resource="http://purl.org/dc/dcmitype/StillImage" /></cc:Work></rdf:RDF></metadata><defs
     id="defs6" /><sodipodi:namedview
     pagecolor="#ffffff"
     bordercolor="#666666"
     borderopacity="1"
     objecttolerance="10"
     gridtolerance="10"
     guidetolerance="10"
     inkscape:pageopacity="0"
     inkscape:pageshadow="2"
     inkscape:window-width="640"
     inkscape:window-height="480"
     id="namedview4" /><g
     id="g10"
     inkscape:groupmode="layer"
     inkscape:label="ink_ext_XXXXXX"
     transform="matrix(1.3333333,0,0,-1.3333333,0,363.94667)"><g
       id="g12"
       transform="scale(0.1)"><path
         d="M 154.094,1897.88 C 55.8789,1719.89 0,1516 0,1299.28 0,1082.49 55.8789,878.48 154.094,700.371 V 1897.88"
         style="fill:#c29739;fill-opacity:1;fill-rule:nonzero;stroke:none"
         id="path14" /><path
         d="m 1279.52,2557.1 c -103.84,0 -204.55,-12.53 -301.227,-35.36 v -197.92 c 95.677,26.96 196.617,41.75 301.227,41.75 598.96,0 1084.55,-475.85 1084.55,-1063.1 0,-264.44 -98.74,-506.298 -261.72,-692.22 l -30.87,-108.559 -68.59,-240.082 c 335.88,226.59 556.32,606.7 556.32,1037.431 -0.23,694.92 -573.11,1258.06 -1279.69,1258.06"
         style="fill:#c29739;fill-opacity:1;fill-rule:nonzero;stroke:none"
         id="path16" /><path
         d="M 978.293,646.449 H 1981.12 c 166.06,170.66 268.35,401.631 268.35,656.021 0,525.1 -434.26,950.68 -969.95,950.68 -105.19,0 -206.31,-16.73 -301.227,-46.95 V 646.449"
         style="fill:#c29739;fill-opacity:1;fill-rule:nonzero;stroke:none"
         id="path18" /><path
         d="M 862.273,2729.59 H 132.227 l 137.89,-281.36 V 281.238 L 132.227,0 H 1807.75 l 151.86,532.43 H 862.273 v 2197.16"
         style="fill:#c29739;fill-opacity:1;fill-rule:nonzero;stroke:none"
         id="path20" /></g></g></svg>
